<svg width="50" height="24" viewBox="0 0 50 24" fill="none" xmlns="http://www.w3.org/2000/svg">
<path d="M4.33497 7.70974C4.33497 8.30136 3.87088 8.78041 3.14593 8.78041C2.44994 8.78041 1.98585 8.30152 2.00033 7.70974C1.98585 7.08982 2.44994 6.625 3.16041 6.625C3.87088 6.625 4.32033 7.08982 4.33497 7.70974ZM2.05842 16.5143V9.62563H4.26224V16.5145L2.05842 16.5143Z" fill="white"/>
<path d="M9.16914 12.1045V13.5274H5.37012V12.1045H9.16914Z" fill="white"/>
<path d="M17.3897 6.5127V14.458C17.3897 15.2328 17.4187 16.0499 17.4477 16.5147H15.4904L15.3888 15.5005H15.3597C14.9101 16.2752 14.0548 16.6698 13.1413 16.6698C11.4595 16.6698 10.1109 15.2752 10.1109 13.1339C10.0963 10.8095 11.5898 9.47111 13.2862 9.47111C14.1562 9.47111 14.8378 9.76708 15.1566 10.246H15.1858V6.5127H17.3897ZM15.1858 12.5421C15.1858 12.4294 15.1713 12.2744 15.1566 12.1617C15.0261 11.5842 14.5477 11.1051 13.8662 11.1051C12.8656 11.1051 12.3437 11.9785 12.3437 13.0632C12.3437 14.2325 12.938 14.965 13.8517 14.965C14.4896 14.965 14.997 14.5424 15.1275 13.9366C15.1711 13.7816 15.1856 13.6268 15.1856 13.4436L15.1858 12.5421Z" fill="white"/>
<path d="M25.8336 12.9926C25.8336 15.5142 23.9922 16.6694 22.0927 16.6694C20.0192 16.6694 18.4243 15.3452 18.4243 13.1194C18.4243 10.8936 19.9323 9.4707 22.2087 9.4707C24.3835 9.4707 25.8336 10.9218 25.8336 12.9926ZM20.7009 13.063C20.7009 14.2462 21.2083 15.1338 22.1508 15.1338C23.0062 15.1338 23.5572 14.3026 23.5572 13.063C23.5572 12.0347 23.1512 10.9921 22.1508 10.9921C21.0921 10.9921 20.7009 12.0487 20.7009 13.063Z" fill="white"/>
<path d="M29.1532 7.70974C29.1532 8.30136 28.6891 8.78041 27.9641 8.78041C27.2681 8.78041 26.8042 8.30152 26.8187 7.70974C26.8042 7.08982 27.2681 6.625 27.9788 6.625C28.6891 6.625 29.1385 7.08982 29.1532 7.70974ZM26.8768 16.5143V9.62563H29.0808V16.5145L26.8768 16.5143Z" fill="white"/>
<path d="M32.9793 7.65332V9.62549H34.5596V11.2034H32.9793V13.6968C32.9793 14.5279 33.1823 14.9083 33.8493 14.9083C34.1246 14.9083 34.3422 14.88 34.5018 14.8521L34.5163 16.472C34.2262 16.5847 33.7041 16.6552 33.0807 16.6552C32.3703 16.6552 31.776 16.4157 31.4279 16.0634C31.0221 15.6551 30.819 14.9928 30.819 14.0209V11.2034H29.8765V9.62549H30.819V8.13221L32.9793 7.65332Z" fill="white"/>
<path d="M9.00977 19.9239C9.00977 19.3861 9.43057 18.9502 10.0891 18.9502C10.7221 18.9502 11.1439 19.3859 11.1309 19.9239C11.1439 20.4863 10.7221 20.9108 10.0776 20.9108C9.43057 20.9106 9.02296 20.4863 9.00977 19.9239Z" fill="white"/>
<path d="M13.4551 19.9213C13.4551 19.2505 13.9813 18.7061 14.805 18.7061C15.5963 18.7061 16.1227 19.2505 16.1064 19.9213C16.1227 20.6265 15.5963 21.1545 14.7883 21.1545C13.9813 21.1545 13.4707 20.6265 13.4551 19.9213Z" fill="white"/>
<path d="M18.4302 19.9213C18.4302 19.1145 19.0623 18.4619 20.0498 18.4619C20.9998 18.4619 21.6319 19.1145 21.6116 19.9213C21.6319 20.7654 20.9998 21.3986 20.0305 21.3986C19.0621 21.3986 18.4493 20.7655 18.4302 19.9213Z" fill="white"/>
<path d="M23.9365 19.9188C23.9365 18.9333 24.7086 18.1367 25.916 18.1367C27.0748 18.1367 27.8464 18.9335 27.8226 19.9188C27.8464 20.9513 27.075 21.7238 25.8919 21.7238C24.7086 21.7238 23.9613 20.9511 23.9365 19.9188Z" fill="white"/>
<path d="M30.1465 19.9161C30.1465 18.7796 31.0381 17.8613 32.4296 17.8613C33.7674 17.8613 34.6571 18.7796 34.6293 19.9161C34.6571 21.1071 33.7675 22 32.4012 22C31.0381 22 30.1751 21.1071 30.1465 19.9161Z" fill="white"/>
<path d="M42.2822 2C45.6475 2.00017 47.9256 4.24635 47.998 7.07617V7.63965C47.9253 10.5912 45.645 12.7704 42.209 12.7705C38.6638 12.7705 36.421 10.4484 36.3467 7.35156C36.3467 4.39344 38.6638 2 42.2822 2ZM44.9971 5.27734C44.4366 5.27734 43.9939 5.48392 43.71 5.88281H43.6943L43.6387 5.36133H42.5977C42.6132 5.70669 42.6289 6.12905 42.6289 6.62012V10.6328H43.8291V8.76758H43.8447C44.0183 9.01312 44.3811 9.19817 44.8467 9.19824C45.707 9.19824 46.5986 8.55323 46.5986 7.1875C46.5986 5.99068 45.8415 5.27747 44.9971 5.27734ZM38.1816 7.56348C38.1816 8.722 38.7577 9.19727 39.5391 9.19727C40.2332 9.19715 40.596 8.81449 40.7461 8.58398H40.7705L40.8252 9.11328H41.8672C41.8513 8.79866 41.8359 8.39918 41.8359 7.9082V5.36133H40.6279V7.59375C40.6279 7.6856 40.6202 7.77797 40.5889 7.84668C40.51 8.03097 40.3199 8.25391 39.9883 8.25391C39.5703 8.25366 39.3887 7.92346 39.3887 7.37891V5.36133H38.1816V7.56348ZM44.5703 6.19043C45.1069 6.19043 45.3838 6.64276 45.3838 7.24121C45.3838 7.87792 45.0757 8.2998 44.5547 8.2998C44.2076 8.29979 43.9318 8.06227 43.8525 7.74805C43.837 7.67892 43.8291 7.59391 43.8291 7.50195V6.98828C43.8291 6.91912 43.837 6.84253 43.8525 6.78125C43.9317 6.43607 44.2309 6.19058 44.5703 6.19043Z" fill="white"/>
</svg>
