<svg width="113" height="24" viewBox="0 0 113 24" fill="none" xmlns="http://www.w3.org/2000/svg">
<g clip-path="url(#clip0_1765_69650)">
<path d="M90.1405 5.88112C90.1405 5.01625 89.427 4.30273 88.5621 4.30273C87.6973 4.30273 86.9838 5.01625 86.9838 5.88112C86.9838 6.74598 87.6973 7.45949 88.5621 7.45949C89.4486 7.45949 90.1405 6.74598 90.1405 5.88112Z" fill="white"/>
<path d="M90.1189 9.4054H87.6973V19.1135H90.1189V9.4054Z" fill="white"/>
<path d="M37.5568 4.30273V10.4649C36.7568 9.64327 35.6324 9.14598 34.4 9.14598C31.7622 9.14598 29.7946 11.3298 29.7946 14.2487C29.7946 17.1676 31.7838 19.3514 34.4 19.3514C35.6324 19.3514 36.7351 18.8757 37.5568 18.0325V19.1135H39.9784V4.32436H37.5568V4.30273ZM34.8757 17.1676C33.254 17.1676 31.9567 15.8703 31.9567 14.2487C31.9567 12.6487 33.254 11.3298 34.8757 11.3298C36.4757 11.3298 37.7946 12.6487 37.7946 14.2487C37.7946 15.8703 36.4757 17.1676 34.8757 17.1676Z" fill="white"/>
<path d="M46.8973 9.146C44.0865 9.146 41.7946 11.4379 41.7946 14.2487C41.7946 17.0595 44.0865 19.3514 46.8973 19.3514C49.7081 19.3514 52 17.0595 52 14.2487C51.9784 11.4379 49.7081 9.146 46.8973 9.146ZM46.8973 17.1676C45.2757 17.1676 43.9784 15.8703 43.9784 14.2487C43.9784 12.6487 45.2757 11.3298 46.8973 11.3298C48.4973 11.3298 49.8162 12.6487 49.8162 14.2487C49.7946 15.8703 48.4973 17.1676 46.8973 17.1676Z" fill="white"/>
<path d="M55.1784 14.2487C55.1784 12.6487 56.4757 11.3298 58.0973 11.3298C58.9622 11.3298 59.7622 11.719 60.2811 12.3244L61.9243 10.8973C60.9946 9.81625 59.6108 9.1676 58.0973 9.1676C55.2865 9.1676 52.9946 11.4595 52.9946 14.2703C52.9946 17.0811 55.2865 19.373 58.0973 19.373C59.6108 19.373 60.9946 18.7027 61.9243 17.6433L60.2811 16.2163C59.7622 16.8217 58.9622 17.2108 58.0973 17.2108C56.4757 17.1676 55.1784 15.8703 55.1784 14.2487Z" fill="white"/>
<path d="M70.6378 19.0919H73.0594V9.38379H70.6378V14.227C70.6378 16.1081 69.8162 17.146 68.3243 17.146C66.854 17.146 66.0108 16.1081 66.0108 14.227V9.38379H63.5892V14.227C63.5892 17.4919 65.0594 19.3297 67.7189 19.3297C68.9513 19.3297 69.9459 18.9189 70.6378 18.1838V19.0919Z" fill="white"/>
<path d="M81.254 9.146C80 9.146 78.9189 9.62167 78.0973 10.4649V9.38384H75.6757V23.9352H78.0973V18.0109C78.8973 18.8325 80 19.3298 81.254 19.3298C83.8919 19.3298 85.8594 17.146 85.8594 14.2271C85.8811 11.3298 83.8919 9.146 81.254 9.146ZM80.7784 17.1676C79.1567 17.1676 77.8594 15.8703 77.8594 14.2487C77.8594 12.6487 79.1567 11.3298 80.7784 11.3298C82.3784 11.3298 83.6973 12.6487 83.6973 14.2487C83.6973 15.8703 82.3784 17.1676 80.7784 17.1676Z" fill="white"/>
<path d="M102.205 19.0919L98.9838 14.2487L102.205 9.40544H99.4378L96.8433 13.2757H95.1784V4.30273H92.7568V19.0919H95.1784V15.2217H96.8433L99.4378 19.0919H102.205Z" fill="white"/>
<path d="M112.67 14.2055C112.67 14.1838 112.67 14.1838 112.67 14.1838C112.649 11.3946 110.465 9.146 107.827 9.146C105.016 9.146 102.724 11.4379 102.724 14.2487C102.724 17.0595 105.016 19.3514 107.827 19.3514C109.341 19.3514 110.724 18.6811 111.654 17.6217L110.011 16.1946C109.492 16.8001 108.692 17.1892 107.827 17.1892C106.53 17.1892 105.449 16.346 105.059 15.1784H112.584C112.562 15.1352 112.67 14.8541 112.67 14.2055ZM105.038 13.319C105.449 12.173 106.53 11.3298 107.805 11.3298C108.973 11.3298 109.968 12.1514 110.335 13.319H105.038Z" fill="white"/>
<path d="M11.7405 23.3513C18.1769 23.3513 23.3946 18.1336 23.3946 11.6973C23.3946 5.26091 18.1769 0.0432129 11.7405 0.0432129C5.30419 0.0432129 0.0864868 5.26091 0.0864868 11.6973C0.0864868 18.1336 5.30419 23.3513 11.7405 23.3513Z" fill="#E3000F"/>
<path d="M5.31891 7.99991V15.3945L11.7405 19.0918L18.1405 15.3945V7.99991L11.7405 4.30261L5.31891 7.99991Z" fill="white"/>
<path d="M8.82162 11.6972C8.82162 13.2972 10.1189 14.6162 11.7405 14.6162C13.3405 14.6162 14.6595 13.3189 14.6595 11.6972C14.6595 10.0972 13.3622 8.77832 11.7405 8.77832C10.1189 8.79994 8.82162 10.0972 8.82162 11.6972Z" fill="#E3000F"/>
</g>
<defs>
<clipPath id="clip0_1765_69650">
<rect width="112.865" height="24" fill="white"/>
</clipPath>
</defs>
</svg>
